<svg width="62" height="62" viewBox="0 0 62 62" fill="none" xmlns="http://www.w3.org/2000/svg">
<path d="M28.4167 54.25V50.375H50.375V30.7417C50.375 28.2444 49.8368 25.8441 48.7604 23.5406C47.684 21.2372 46.2417 19.2028 44.4333 17.4375C42.625 15.6722 40.5583 14.2622 38.2333 13.2073C35.9083 12.1524 33.4972 11.625 31 11.625C28.5028 11.625 26.0917 12.1524 23.7667 13.2073C21.4417 14.2622 19.375 15.6722 17.5667 17.4375C15.7583 19.2028 14.316 21.2372 13.2396 23.5406C12.1632 25.8441 11.625 28.2444 11.625 30.7417V46.5H10.3333C8.9125 46.5 7.69618 45.9941 6.68437 44.9823C5.67257 43.9705 5.16666 42.7542 5.16666 41.3333V36.1667C5.16666 35.1764 5.40347 34.3045 5.87708 33.551C6.35069 32.7976 6.975 32.184 7.75 31.7104L7.94375 28.2875C8.33125 25.1444 9.22465 22.3028 10.624 19.7625C12.0233 17.2222 13.767 15.0694 15.8552 13.3042C17.9434 11.5389 20.2899 10.1719 22.8948 9.20312C25.4997 8.23438 28.2014 7.75 31 7.75C33.8417 7.75 36.5649 8.23438 39.1698 9.20312C41.7747 10.1719 44.1104 11.5497 46.1771 13.3365C48.2438 15.1233 49.9767 17.276 51.376 19.7948C52.7753 22.3135 53.6687 25.1229 54.0562 28.2229L54.25 31.5813C55.025 31.9688 55.6493 32.5392 56.1229 33.2927C56.5965 34.0462 56.8333 34.875 56.8333 35.7792V41.7208C56.8333 42.6681 56.5965 43.5076 56.1229 44.2396C55.6493 44.9715 55.025 45.5312 54.25 45.9187V50.375C54.25 51.4514 53.8733 52.3663 53.1198 53.1198C52.3663 53.8733 51.4514 54.25 50.375 54.25H28.4167ZM23.25 35.5208C22.7333 35.5208 22.2812 35.3271 21.8937 34.9396C21.5063 34.5521 21.3125 34.0785 21.3125 33.5188C21.3125 33.0021 21.5063 32.5608 21.8937 32.1948C22.2812 31.8288 22.7549 31.6458 23.3146 31.6458C23.8312 31.6458 24.2726 31.8288 24.6385 32.1948C25.0045 32.5608 25.1875 33.0236 25.1875 33.5833C25.1875 34.1 25.0045 34.5521 24.6385 34.9396C24.2726 35.3271 23.8097 35.5208 23.25 35.5208ZM38.75 35.5208C38.2333 35.5208 37.7812 35.3271 37.3937 34.9396C37.0063 34.5521 36.8125 34.0785 36.8125 33.5188C36.8125 33.0021 37.0063 32.5608 37.3937 32.1948C37.7812 31.8288 38.2549 31.6458 38.8146 31.6458C39.3312 31.6458 39.7726 31.8288 40.1385 32.1948C40.5045 32.5608 40.6875 33.0236 40.6875 33.5833C40.6875 34.1 40.5045 34.5521 40.1385 34.9396C39.7726 35.3271 39.3097 35.5208 38.75 35.5208ZM15.5646 32.1625C15.3924 29.6222 15.7476 27.3187 16.6302 25.2521C17.5128 23.1854 18.6969 21.4309 20.1823 19.9885C21.6677 18.5462 23.3792 17.4375 25.3167 16.6625C27.2542 15.8875 29.1917 15.5 31.1292 15.5C35.0472 15.5 38.341 16.7378 41.0104 19.2135C43.6799 21.6892 45.316 24.7785 45.9188 28.4812C41.8715 28.4382 38.3087 27.351 35.2302 25.2198C32.1517 23.0885 29.7729 20.3222 28.0937 16.9208C27.4049 20.4083 25.9517 23.4976 23.7344 26.1885C21.517 28.8795 18.7937 30.8708 15.5646 32.1625Z" fill="#305FC1"/>
</svg>
