<svg width="59" height="59" viewBox="0 0 59 59" fill="none" xmlns="http://www.w3.org/2000/svg">
<path d="M13.7666 49.1052C11.759 49.1052 10.0484 48.3985 8.63488 46.9849C7.22133 45.5714 6.51456 43.8608 6.51456 41.8532H2.45831V13.5209C2.45831 12.5375 2.82706 11.6771 3.56456 10.9396C4.30206 10.2021 5.16248 9.83337 6.14581 9.83337H41.7302V20.0969H48.1833L56.5416 31.2209V41.8532H52.1781C52.1781 43.8608 51.4713 45.5714 50.0578 46.9849C48.6442 48.3985 46.9337 49.1052 44.926 49.1052C42.9184 49.1052 41.2078 48.3985 39.7943 46.9849C38.3807 45.5714 37.6739 43.8608 37.6739 41.8532H21.0187C21.0187 43.8608 20.312 45.5714 18.8984 46.9849C17.4849 48.3985 15.7743 49.1052 13.7666 49.1052ZM13.7666 45.4177C14.75 45.4177 15.5899 45.0695 16.2864 44.373C16.983 43.6764 17.3312 42.8365 17.3312 41.8532C17.3312 40.8698 16.983 40.0299 16.2864 39.3334C15.5899 38.6368 14.75 38.2886 13.7666 38.2886C12.7833 38.2886 11.9434 38.6368 11.2469 39.3334C10.5503 40.0299 10.2021 40.8698 10.2021 41.8532C10.2021 42.8365 10.5503 43.6764 11.2469 44.373C11.9434 45.0695 12.7833 45.4177 13.7666 45.4177ZM6.14581 38.1657H7.4979C8.19442 37.0594 9.07533 36.1785 10.1406 35.523C11.2059 34.8674 12.3941 34.5396 13.7052 34.5396C15.0163 34.5396 16.2147 34.8776 17.3005 35.5537C18.3863 36.2297 19.2774 37.1004 19.9739 38.1657H38.0427V13.5209H6.14581V38.1657ZM44.926 45.4177C45.9094 45.4177 46.7493 45.0695 47.4458 44.373C48.1423 43.6764 48.4906 42.8365 48.4906 41.8532C48.4906 40.8698 48.1423 40.0299 47.4458 39.3334C46.7493 38.6368 45.9094 38.2886 44.926 38.2886C43.9427 38.2886 43.1028 38.6368 42.4062 39.3334C41.7097 40.0299 41.3614 40.8698 41.3614 41.8532C41.3614 42.8365 41.7097 43.6764 42.4062 44.373C43.1028 45.0695 43.9427 45.4177 44.926 45.4177ZM41.7302 32.8802H53.1614L46.3396 23.7844H41.7302V32.8802Z" fill="#305FC1"/>
</svg>
