<svg width="19" height="19" viewBox="0 0 19 19" fill="none" xmlns="http://www.w3.org/2000/svg">
<path d="M13.5 1H5.16667C2.86548 1 1 2.86548 1 5.16667V13.5C1 15.8012 2.86548 17.6667 5.16667 17.6667H13.5C15.8012 17.6667 17.6667 15.8012 17.6667 13.5V5.16667C17.6667 2.86548 15.8012 1 13.5 1Z" stroke="white" stroke-width="2" stroke-linecap="round" stroke-linejoin="round"/>
<path d="M12.6665 8.80832C12.7693 9.50186 12.6509 10.2102 12.328 10.8325C12.0051 11.4548 11.4941 11.9595 10.8679 12.2747C10.2416 12.5899 9.53188 12.6997 8.83966 12.5883C8.14744 12.4769 7.50797 12.1501 7.0122 11.6543C6.51643 11.1585 6.18961 10.519 6.07823 9.82683C5.96684 9.13461 6.07656 8.4249 6.39178 7.79863C6.70699 7.17236 7.21166 6.66144 7.83399 6.33852C8.45632 6.01561 9.16463 5.89714 9.85817 5.99999C10.5656 6.10489 11.2205 6.43454 11.7262 6.94024C12.232 7.44594 12.5616 8.10088 12.6665 8.80832Z" stroke="white" stroke-width="2" stroke-linecap="round" stroke-linejoin="round"/>
<path d="M13.9165 4.75H13.9265" stroke="white" stroke-width="2" stroke-linecap="round" stroke-linejoin="round"/>
</svg>
