<svg width="62" height="62" viewBox="0 0 62 62" fill="none" xmlns="http://www.w3.org/2000/svg">
<path d="M18.7292 46.5H22.6042V40.6875H28.4167V36.8125H22.6042V31H18.7292V36.8125H12.9167V40.6875H18.7292V46.5ZM33.5833 36.8125H49.0833V34.2291H33.5833V36.8125ZM33.5833 44.5625H43.9167V41.9791H33.5833V44.5625ZM9.04166 56.8333C8.00833 56.8333 7.10416 56.4458 6.32916 55.6708C5.55416 54.8958 5.16666 53.9916 5.16666 52.9583V21.9583C5.16666 20.925 5.55416 20.0208 6.32916 19.2458C7.10416 18.4708 8.00833 18.0833 9.04166 18.0833H24.3479V9.04163C24.3479 8.00829 24.7354 7.10413 25.5104 6.32913C26.2854 5.55413 27.1896 5.16663 28.2229 5.16663H33.8417C34.875 5.16663 35.7792 5.55413 36.5542 6.32913C37.3292 7.10413 37.7167 8.00829 37.7167 9.04163V18.0833H52.9583C53.9917 18.0833 54.8958 18.4708 55.6708 19.2458C56.4458 20.0208 56.8333 20.925 56.8333 21.9583V52.9583C56.8333 53.9916 56.4458 54.8958 55.6708 55.6708C54.8958 56.4458 53.9917 56.8333 52.9583 56.8333H9.04166ZM9.04166 52.9583H52.9583V21.9583H37.7167C37.7167 23.1638 37.3184 24.1111 36.5219 24.8C35.7253 25.4888 34.7243 25.8333 33.5187 25.8333H28.4812C27.3187 25.8333 26.3392 25.4888 25.5427 24.8C24.7462 24.1111 24.3479 23.1638 24.3479 21.9583H9.04166V52.9583ZM28.2229 21.9583H33.8417V9.04163H28.2229V21.9583Z" fill="#305FC1"/>
</svg>
