<svg width="247" height="11" viewBox="0 0 247 11" fill="none" xmlns="http://www.w3.org/2000/svg">
  <path d="M60.9274 8.84653C78.5762 8.86921 180.503 9.01537 205.855 8.99867C215.967 8.99201 226.08 8.99504 236.191 8.89217C239.043 8.86316 241.983 9.09488 244.736 8.6031C246.057 8.3671 242.054 8.23889 240.705 8.0858C238.568 7.84326 236.428 7.60735 234.279 7.41637C223.961 6.49948 213.607 6.01792 203.206 5.75798C147.282 4.36025 90.9538 4.36113 35.0836 6.53392C24.7268 6.9367 14.3649 7.37931 3.98814 7.47722C-5.87761 7.57032 23.6736 6.56778 33.5173 6.12313C61.956 4.83853 90.4011 3.63607 118.857 2.53251C124.402 2.31746 129.992 2 135.557 2" stroke="black" stroke-width="3" stroke-linecap="round"/>
</svg>
					